<svg viewBox="0 0 24 24" fill="#555555" xmlns="http://www.w3.org/2000/svg">
  <path d="M17.05 20.28c-.98.95-2.05.8-3.08.35-1.09-.46-2.09-.48-3.24 0-1.44.62-2.2.44-3.06-.35C4.79 17.1 5.67 10.6 9.6 10.45c1.35.05 2.29.74 3.08.74.78 0 2.24-.92 3.8-.78 1.11.04 2.13.52 2.76 1.32-2.23 1.33-1.9 4.28.37 5.3-.45.99-1.03 1.97-2.19 2l.63.25zM12.03 7.25c-.11 1.93-1.58 3.41-3.4 3.36-.2-1.64 1.1-3.29 3.07-3.46c.32-1.76 1.37-2.69 2.72-3.12C14.49 3.64 15 3.5 15 3.5c-.12 1.47-1.03 2.47-1.97 3.06-.43.27-1.02.49-1 .69z"/>
</svg>
